<?xml version="1.0" encoding="utf-8"?>
<!-- Generator: Adobe Illustrator 26.0.2, SVG Export Plug-In . SVG Version: 6.00 Build 0)  -->
<svg version="1.1" id="Layer_1" xmlns="http://www.w3.org/2000/svg" xmlns:xlink="http://www.w3.org/1999/xlink" x="0px" y="0px"
	 viewBox="0 0 120 120" enable-background="new 0 0 120 120" xml:space="preserve">
<g id="logo_64x32_onWhite">
	<g id="Logo_onBright" transform="translate(5.000000, 7.000000)">
		<path id="Path" fill="#EB0143" d="M5,36.8l15.5,19.5V43.7c0-0.5,0.2-0.7,0.7-0.7h3.1c0.2,0,0.7,0.5,0.7,0.7v25.5L9.5,49.1v13.7
			c0,0.5-0.2,0.7-0.7,0.7H5.7C5.5,63.5,5,63,5,62.8V36.8L5,36.8z"/>
		<path id="Path_00000179614975084531900570000008221357615546350744_" fill="#00A1E7" d="M29.2,43.5c0-0.2,0.3-0.5,0.5-0.5h12.7
			c0.3,0,0.5,0.2,0.5,0.5v2.3c0,0.2-0.3,0.5-0.5,0.5h-9.2v4.8h7.7c0.3,0,0.5,0.2,0.5,0.5v2.3c0,0.2-0.3,0.5-0.5,0.5h-7.7v5.5h9.2
			c0.3,0,0.5,0.2,0.5,0.5v2.3c0,0.2-0.3,0.5-0.5,0.5H29.7c-0.3,0-0.5-0.2-0.5-0.5V43.5L29.2,43.5z"/>
		<path id="Shape" fill="#43CC3C" d="M64.7,58.5c-0.5-0.3-1-0.4-1.5-0.4c-1.7,0-3.2,1.4-3.2,3.1c0,0.4,0.1,0.8,0.2,1.2
			c-1.4,0.7-3,1-4.7,1c-5.8,0-10.4-4.6-10.4-10.4s4.6-10.6,10.4-10.6s10.6,4.6,10.6,10.6C66.2,55.1,65.6,56.9,64.7,58.5L64.7,58.5z
			 M55.5,59.8c3.7,0,6.7-3,6.7-6.7c0-3.7-3-6.7-6.7-6.7c-3.7,0-6.7,3-6.7,6.7C48.8,56.8,52.1,59.8,55.5,59.8L55.5,59.8z"/>
		<path id="Shape_00000170973887973608226630000008285126968204771478_" fill="#F2F2F2" d="M70.1,62.1V43c0-0.3,0.3-0.6,0.5-0.6h1.6
			c0.3,0,0.5,0.3,0.5,0.6v8.4c0.3-0.1,1.3-0.6,2.7-0.6c3.1,0,5.6,2.7,5.6,6c0,3.3-2.3,6-5.3,6c-2.2,0-3.6-1.6-3.6-1.6L72,62.2
			c-0.1,0.3-0.3,0.5-0.5,0.5h-0.9C70.3,62.7,70.1,62.4,70.1,62.1L70.1,62.1z M72.8,58.8c0.1,0.3,1,1.7,2.7,1.7c1.8,0,3-1.6,3-3.6
			c0-2-1.3-3.6-3.2-3.6c-1.5,0-2.5,0.7-2.5,0.7L72.8,58.8L72.8,58.8z"/>
		<path id="Shape_00000109748322421175470370000004446616390998392449_" fill="#F2F2F2" d="M83.4,56.9c0-3.3,2.3-6.1,5.7-6.1
			c3,0,5.2,2.3,5.2,5.3c0,0.2,0,0.6-0.1,0.8c0,0.3-0.3,0.5-0.5,0.5H86c0.1,1.6,1.4,3.1,3.3,3.1c1,0,2-0.5,2.5-0.8
			c0.3-0.2,0.5-0.3,0.8,0l0.8,1.1c0.2,0.2,0.3,0.5-0.1,0.8c-0.8,0.7-2.3,1.4-4.2,1.4C85.6,62.9,83.4,60.2,83.4,56.9L83.4,56.9z
			 M86.3,55.7h5.5c-0.1-1.4-1.2-2.5-2.6-2.5C87.7,53.1,86.5,54.2,86.3,55.7L86.3,55.7z"/>
		<path id="Path_00000034081406937059107510000007662416507429433505_" fill="#F2F2F2" d="M98.5,59.5v-6h-1.2
			c-0.3,0-0.5-0.3-0.5-0.6v-1.3c0-0.3,0.2-0.6,0.5-0.6h1.2v-3.2c0-0.3,0.3-0.6,0.5-0.6l1.6,0c0.3,0,0.5,0.3,0.5,0.6v3.2h2.9
			c0.3,0,0.5,0.2,0.5,0.6V53c0,0.3-0.2,0.6-0.5,0.6h-2.9v5.7c0,1,0.4,1.2,0.9,1.2c0.6,0,1.4-0.4,1.7-0.5c0.4-0.2,0.5,0,0.7,0.3
			l0.5,1.3c0.1,0.3,0,0.6-0.3,0.7c-0.3,0.2-2,0.9-3.3,0.9C99.1,62.9,98.5,61.6,98.5,59.5L98.5,59.5z"/>
		<path id="Path_00000022562685364780105770000011531631214020080256_" fill="#F2F2F2" d="M63.1,63c0.9,0,1.7-0.8,1.7-1.7
			s-0.8-1.7-1.7-1.7c-0.9,0-1.7,0.8-1.7,1.7S62.2,63,63.1,63L63.1,63z"/>
	</g>
</g>
</svg>
