<?xml version="1.0" encoding="utf-8"?>
<!-- Generator: Adobe Illustrator 26.0.2, SVG Export Plug-In . SVG Version: 6.00 Build 0)  -->
<svg version="1.1" id="Layer_1" xmlns="http://www.w3.org/2000/svg" xmlns:xlink="http://www.w3.org/1999/xlink" x="0px" y="0px"
	 viewBox="0 0 232 80" enable-background="new 0 0 232 80" xml:space="preserve">
<g id="logo_64x32_onWhite">
	<g id="Logo_onBright" transform="translate(5.000000, 7.000000)">
		<path id="Path" fill="#EB0143" d="M18.6,3l28.7,36V15.9c0-0.8,0.4-1.3,1.3-1.3h5.7c0.4,0,1.3,0.8,1.3,1.3V63L26.9,25.7V51
			c0,0.8-0.4,1.3-1.3,1.3h-5.6c-0.4,0-1.3-0.8-1.3-1.3V3L18.6,3z"/>
		<path id="Path_00000179614975084531900570000008221357615546350744_" fill="#00A1E7" d="M63.3,15.5c0-0.4,0.5-0.8,0.9-0.8h23.4
			c0.5,0,0.9,0.4,0.9,0.8v4.2c0,0.4-0.5,0.8-0.9,0.8h-17v8.9h14.2c0.5,0,0.9,0.4,0.9,0.8v4.2c0,0.4-0.5,0.8-0.9,0.8H70.6v10.2h17
			c0.5,0,0.9,0.4,0.9,0.8v4.2c0,0.4-0.5,0.8-0.9,0.8H64.2c-0.5,0-0.9-0.4-0.9-0.8V15.5L63.3,15.5z"/>
		<path id="Shape" fill="#43CC3C" d="M128.8,43.2c-0.8-0.5-1.8-0.7-2.8-0.7c-3.2,0-5.8,2.6-5.8,5.8c0,0.8,0.1,1.5,0.4,2.2
			c-2.6,1.2-5.5,1.9-8.7,1.9c-10.7,0-19.2-8.5-19.2-19.1s8.5-19.6,19.2-19.6c10.7,0,19.6,8.5,19.6,19.6
			C131.6,36.9,130.6,40.3,128.8,43.2L128.8,43.2z M112,45.5c6.8,0,12.4-5.5,12.4-12.3s-5.5-12.3-12.4-12.3s-12.4,5.5-12.4,12.3
			S105.6,45.5,112,45.5L112,45.5z"/>
		<path id="Shape_00000170973887973608226630000008285126968204771478_" fill="#212121" d="M138.9,49.8V14.6c0-0.5,0.5-1,1-1h3
			c0.5,0,1,0.5,1,1v15.6c0.5-0.2,2.3-1.2,5-1.2c5.8,0,10.3,5,10.3,11.2c0,6.1-4.2,11.2-9.8,11.2c-4.1,0-6.6-3-6.6-3l-0.4,1.5
			c-0.1,0.5-0.5,0.9-0.9,0.9h-1.6C139.4,50.8,138.9,50.3,138.9,49.8L138.9,49.8z M143.9,43.6c0.3,0.6,1.8,3.2,5,3.2
			c3.3,0,5.5-3,5.5-6.6c0-3.6-2.5-6.6-5.9-6.6c-2.7,0-4.5,1.2-4.5,1.2L143.9,43.6L143.9,43.6z"/>
		<path id="Shape_00000109748322421175470370000004446616390998392449_" fill="#212121" d="M163.4,40.2c0-6,4.2-11.2,10.5-11.2
			c5.4,0,9.6,4.2,9.6,9.9c0,0.4-0.1,1.1-0.1,1.4c-0.1,0.5-0.5,0.9-0.9,0.9h-14.3c0.2,2.9,2.6,5.7,6,5.7c1.9,0,3.6-0.8,4.7-1.6
			c0.6-0.4,1-0.6,1.4-0.1l1.5,2c0.4,0.4,0.5,0.8-0.1,1.4c-1.5,1.3-4.2,2.7-7.8,2.7C167.6,51.4,163.4,46.3,163.4,40.2L163.4,40.2z
			 M168.9,37.9h10.1c-0.1-2.5-2.2-4.7-4.8-4.7C171.3,33.2,169.2,35.3,168.9,37.9L168.9,37.9z"/>
		<path id="Path_00000034081406937059107510000007662416507429433505_" fill="#212121" d="M191.3,45V33.9h-2.2c-0.6,0-1-0.5-1-1
			v-2.4c0-0.6,0.4-1,1-1h2.2v-5.9c0-0.5,0.5-1,1-1l3-0.1c0.5,0,0.9,0.5,0.9,1v6h5.3c0.6,0,1,0.4,1,1v2.4c0,0.5-0.4,1-1,1h-5.3v10.5
			c0,1.8,0.7,2.1,1.7,2.1c1.1,0,2.6-0.6,3.2-1c0.7-0.3,1,0,1.2,0.5l0.9,2.3c0.3,0.6,0.1,1-0.5,1.3c-0.5,0.3-3.6,1.6-6.1,1.6
			C192.5,51.4,191.3,48.8,191.3,45L191.3,45z"/>
		<path id="Path_00000022562685364780105770000011531631214020080256_" fill="#212121" d="M126,51.5c1.7,0,3.1-1.4,3.1-3.2
			c0-1.8-1.4-3.2-3.1-3.2c-1.7,0-3.1,1.4-3.1,3.2C122.9,50,124.3,51.5,126,51.5L126,51.5z"/>
	</g>
</g>
</svg>
