<?xml version="1.0" encoding="UTF-8"?>
<svg width="1000px" height="325px" viewBox="0 0 1000 325" version="1.1" xmlns="http://www.w3.org/2000/svg" xmlns:xlink="http://www.w3.org/1999/xlink">
    <title>Logo_White</title>
    <g id="Page-1" stroke="none" stroke-width="1" fill="none" fill-rule="evenodd">
        <g id="Logo_White" fill="#FFFFFF" fill-rule="nonzero">
            <path d="M0,0 L155.3,194.9 L155.3,69.6 C155.3,65 157.7,62.6 162.4,62.6 L193,62.6 C195.4,62.6 200.1,67.2 200.1,69.6 L200.1,324.8 L44.7,123 L44.7,259.9 C44.7,264.5 42.3,266.9 37.6,266.9 L7.1,266.9 C4.7,266.9 0,262.3 0,259.9 L0,0 L0,0 Z" id="Path"></path>
            <path d="M241.7,67.7 C241.7,65.4 244.2,63.1 246.7,63.1 L373.5,63.1 C376,63.1 378.5,65.4 378.5,67.7 L378.5,90.6 C378.5,92.9 376,95.2 373.5,95.2 L281.5,95.2 L281.5,143.3 L358.6,143.3 C361.1,143.3 363.6,145.6 363.6,147.9 L363.6,170.8 C363.6,173.1 361.1,175.4 358.6,175.4 L281.5,175.4 L281.5,230.4 L373.5,230.4 C376,230.4 378.5,232.7 378.5,235 L378.5,257.9 C378.5,260.2 376,262.5 373.5,262.5 L246.7,262.5 C244.2,262.5 241.7,260.2 241.7,257.9 L241.7,67.7 L241.7,67.7 Z" id="Path"></path>
            <path d="M596.6,217.4 C592.1,214.9 586.9,213.5 581.4,213.5 C564,213.5 549.9,227.6 549.9,244.9 C549.9,249.1 550.7,253.2 552.3,256.9 C538.3,263.5 522.4,267.2 505.4,267.2 C447.7,267.2 401.5,221.2 401.5,163.6 C401.5,106 447.6,57.6 505.4,57.6 C563.2,57.6 611.6,103.6 611.6,163.5 C611.6,183.3 606.2,201.7 596.6,217.4 L596.6,217.4 Z M505.4,230.3 C542.4,230.3 572.4,200.4 572.4,163.5 C572.4,126.6 542.4,96.7 505.4,96.7 C468.4,96.7 438.4,126.6 438.4,163.5 C438.4,200.4 470.7,230.3 505.4,230.3 L505.4,230.3 Z" id="Shape"></path>
            <path d="M651,253.4 L651,62.9 C651,60 653.5,57.4 656.4,57.4 L672.8,57.4 C675.6,57.4 678.2,60 678.2,62.9 L678.2,147.2 C680.7,146.3 690.9,140.9 705.3,140.9 C736.6,140.9 760.9,167.7 760.9,201.3 C760.9,234.4 738,261.7 708.1,261.7 C685.8,261.7 672.2,245.6 672.2,245.6 L669.9,253.9 C669.1,256.8 667.4,258.8 664.8,258.8 L656.3,258.8 C653.5,258.9 651,256.3 651,253.4 L651,253.4 Z M678.2,219.9 C679.6,223.1 687.8,237.2 705.1,237.2 C723.2,237.2 735.1,220.8 735.1,201.4 C735.1,181.8 721.8,165.9 702.9,165.9 C688.2,165.9 678.3,172.5 678.3,172.5 L678.3,219.9 L678.2,219.9 Z" id="Shape"></path>
            <path d="M783.7,201.2 C783.7,168.6 806.4,140.6 840.5,140.6 C870,140.6 892.7,163.1 892.7,194 C892.7,196 892.4,199.8 892.1,201.8 C891.8,204.7 889.5,206.7 887,206.7 L809.8,206.7 C810.7,222.3 824,237.6 842.5,237.6 C852.7,237.6 862.1,233 867.8,229.2 C871.2,227.2 873.2,226 875.5,228.9 L883.5,239.9 C885.5,242.2 886.3,244.5 882.9,247.4 C874.7,254.6 859.9,261.8 840.9,261.8 C806.4,261.8 783.7,234.4 783.7,201.2 L783.7,201.2 Z M813.2,188.9 L867.7,188.9 C866.9,175.2 855.6,163.6 841.8,163.6 C826.6,163.6 814.8,174.7 813.2,188.9 L813.2,188.9 Z" id="Shape"></path>
            <path d="M934.7,227.5 L934.7,167.5 L922.8,167.5 C919.7,167.5 917.4,164.9 917.4,162 L917.4,149 C917.4,145.8 919.7,143.5 922.8,143.5 L934.7,143.5 L934.7,111.5 C934.7,108.6 937.3,106 940.1,106 L956.3,105.7 C959.1,105.7 961.4,108.3 961.4,111.2 L961.4,143.5 L990.3,143.5 C993.4,143.5 995.7,145.8 995.7,149 L995.7,162 C995.7,164.9 993.4,167.5 990.3,167.5 L961.4,167.5 L961.4,224.6 C961.4,234.4 965.1,236.1 970.5,236.1 C976.5,236.1 984.4,232.6 987.8,230.9 C991.5,229.2 993.2,230.9 994.3,233.5 L999.4,246.2 C1000.8,249.4 999.7,251.7 996.8,253.1 C994,254.8 977.2,261.8 963.6,261.8 C941.3,261.8 934.7,247.9 934.7,227.5 L934.7,227.5 Z" id="Path"></path>
            <path d="M581.3,262.3 C590.7,262.3 598.2,254.6 598.2,245.1 C598.2,235.6 590.6,227.9 581.3,227.9 C571.9,227.9 564.4,235.6 564.4,245.1 C564.4,254.6 572,262.3 581.3,262.3 L581.3,262.3 Z" id="Path"></path>
        </g>
    </g>
</svg>