<?xml version="1.0" encoding="UTF-8"?>
<svg width="64px" height="32px" viewBox="0 0 64 32" version="1.1" xmlns="http://www.w3.org/2000/svg" xmlns:xlink="http://www.w3.org/1999/xlink">
    <title>logo_64x32_onWhite</title>
    <g id="logo_64x32_onWhite" stroke="none" stroke-width="1" fill="none" fill-rule="evenodd">
        <g id="Logo_onBright" transform="translate(5.000000, 7.000000)" fill-rule="nonzero">
            <path d="M0,0 L8.38616354,10.5245542 L8.38616354,3.75838366 C8.38616354,3.50998474 8.51576297,3.3803853 8.76956187,3.3803853 L10.4219547,3.3803853 C10.5515541,3.3803853 10.805353,3.62878422 10.805353,3.75838366 L10.805353,17.5391237 L2.4137895,6.64197112 L2.4137895,14.034539 C2.4137895,14.2829379 2.28419007,14.4125373 2.03039117,14.4125373 L0.383398333,14.4125373 C0.253798896,14.4125373 0,14.1641384 0,14.034539 L0,0 L0,0 Z" id="Path" fill="#EB0143"></path>
            <path d="M13.0517433,3.6557841 C13.0517433,3.53158464 13.1867427,3.40738518 13.3217421,3.40738518 L20.1689123,3.40738518 C20.3039117,3.40738518 20.4389111,3.53158464 20.4389111,3.6557841 L20.4389111,4.89237873 C20.4389111,5.01657819 20.3039117,5.14077765 20.1689123,5.14077765 L15.2009339,5.14077765 L15.2009339,7.73816635 L19.3643158,7.73816635 C19.4993152,7.73816635 19.6343146,7.86236581 19.6343146,7.98656527 L19.6343146,9.2231599 C19.6343146,9.34735936 19.4993152,9.47155882 19.3643158,9.47155882 L15.2009339,9.47155882 L15.2009339,12.4415459 L20.1689123,12.4415459 C20.3039117,12.4415459 20.4389111,12.5657454 20.4389111,12.6899448 L20.4389111,13.9265394 C20.4389111,14.0507389 20.3039117,14.1749384 20.1689123,14.1749384 L13.3217421,14.1749384 C13.1867427,14.1749384 13.0517433,14.0507389 13.0517433,13.9265394 L13.0517433,3.6557841 L13.0517433,3.6557841 Z" id="Path" fill="#00A1E7"></path>
            <path d="M32.2162599,11.739549 C31.973261,11.6045495 31.6924622,11.5289499 31.3954635,11.5289499 C30.4558676,11.5289499 29.6944709,12.2903466 29.6944709,13.2245425 C29.6944709,13.4513415 29.7376707,13.6727406 29.8240703,13.8725397 C29.0680736,14.2289381 28.2094773,14.4287373 27.2914813,14.4287373 C24.1756949,14.4287373 21.6809057,11.9447481 21.6809057,8.83436159 C21.6809057,5.72397511 24.1702949,3.11038648 27.2914813,3.11038648 C30.4126678,3.11038648 33.0262564,5.59437568 33.0262564,8.82896161 C33.0262564,9.89815696 32.7346577,10.8917526 32.2162599,11.739549 L32.2162599,11.739549 Z M27.2914813,12.4361459 C29.2894726,12.4361459 30.9094656,10.8215529 30.9094656,8.82896161 C30.9094656,6.83637028 29.2894726,5.2217773 27.2914813,5.2217773 C25.29349,5.2217773 23.6734971,6.83637028 23.6734971,8.82896161 C23.6734971,10.8215529 25.4176895,12.4361459 27.2914813,12.4361459 L27.2914813,12.4361459 Z" id="Shape" fill="#43CC3C"></path>
            <path d="M35.1538472,13.6835405 L35.1538472,3.39658523 C35.1538472,3.23998591 35.2888466,3.09958652 35.4454459,3.09958652 L36.331042,3.09958652 C36.4822414,3.09958652 36.6226408,3.23998591 36.6226408,3.39658523 L36.6226408,7.94876544 C36.7576402,7.90016565 37.3084378,7.60856692 38.0860344,7.60856692 C39.7762271,7.60856692 41.0884213,9.05576063 41.0884213,10.8701527 C41.0884213,12.657545 39.8518267,14.1317386 38.2372337,14.1317386 C37.033039,14.1317386 36.2986422,13.2623423 36.2986422,13.2623423 L36.1744427,13.7105404 C36.1312429,13.8671397 36.0394433,13.9751392 35.8990439,13.9751392 L35.4400459,13.9751392 C35.2888466,13.9805392 35.1538472,13.8401398 35.1538472,13.6835405 L35.1538472,13.6835405 Z M36.6226408,11.8745484 C36.6982404,12.0473476 37.1410385,12.8087443 38.0752344,12.8087443 C39.0526302,12.8087443 39.6952274,11.9231482 39.6952274,10.8755527 C39.6952274,9.81715732 38.9770305,8.95856105 37.956435,8.95856105 C37.1626384,8.95856105 36.6280407,9.3149595 36.6280407,9.3149595 L36.6280407,11.8745484 L36.6226408,11.8745484 Z" id="Shape" fill="#212121"></path>
            <path d="M42.319616,10.8647528 C42.319616,9.10436041 43.5454107,7.59236699 45.3868027,7.59236699 C46.9797957,7.59236699 48.2055904,8.80736171 48.2055904,10.4759545 C48.2055904,10.583954 48.1893905,10.7891531 48.1731905,10.8971526 C48.1569906,11.0537519 48.0327912,11.1617515 47.8977917,11.1617515 L43.7290099,11.1617515 C43.7776097,12.0041478 44.4958065,12.8303442 45.4948022,12.8303442 C46.0455998,12.8303442 46.5531976,12.5819453 46.8609962,12.3767462 C47.0445955,12.2687467 47.152595,12.2039469 47.2767944,12.3605463 L47.7087926,12.9545437 C47.8167921,13.0787431 47.8599919,13.2029426 47.6763927,13.3595419 C47.2335946,13.7483402 46.4343981,14.1371385 45.4084026,14.1371385 C43.5454107,14.1371385 42.319616,12.657545 42.319616,10.8647528 L42.319616,10.8647528 Z M43.9126091,10.2005556 L46.8555963,10.2005556 C46.8123965,9.46075886 46.2021991,8.83436159 45.4570024,8.83436159 C44.6362059,8.83436159 43.9990087,9.43375898 43.9126091,10.2005556 L43.9126091,10.2005556 Z" id="Shape" fill="#212121"></path>
            <path d="M50.4735805,12.2849466 L50.4735805,9.04496067 L49.8309833,9.04496067 C49.6635841,9.04496067 49.5393846,8.90456128 49.5393846,8.74796196 L49.5393846,8.04596502 C49.5393846,7.87316577 49.6635841,7.74896631 49.8309833,7.74896631 L50.4735805,7.74896631 L50.4735805,6.02097382 C50.4735805,5.8643745 50.6139799,5.72397511 50.7651793,5.72397511 L51.6399755,5.70777518 C51.7911748,5.70777518 51.9153743,5.84817457 51.9153743,6.00477389 L51.9153743,7.74896631 L53.4759675,7.74896631 C53.6433668,7.74896631 53.7675662,7.87316577 53.7675662,8.04596502 L53.7675662,8.74796196 C53.7675662,8.90456128 53.6433668,9.04496067 53.4759675,9.04496067 L51.9153743,9.04496067 L51.9153743,12.1283473 C51.9153743,12.657545 52.1151734,12.7493446 52.4067721,12.7493446 C52.7307707,12.7493446 53.1573689,12.5603454 53.3409681,12.4685458 C53.5407672,12.3767462 53.6325668,12.4685458 53.6919665,12.6089452 L53.9673654,13.2947422 C54.042965,13.4675414 53.9835653,13.5917409 53.826966,13.6673406 C53.6757666,13.7591402 52.7685706,14.1371385 52.0341738,14.1371385 C50.829979,14.1371385 50.4735805,13.3865418 50.4735805,12.2849466 L50.4735805,12.2849466 Z" id="Path" fill="#212121"></path>
            <path d="M31.3900635,14.1641384 C31.8976613,14.1641384 32.3026595,13.7483402 32.3026595,13.2353425 C32.3026595,12.7223447 31.8922613,12.3065465 31.3900635,12.3065465 C30.8824657,12.3065465 30.4774675,12.7223447 30.4774675,13.2353425 C30.4774675,13.7483402 30.8878657,14.1641384 31.3900635,14.1641384 L31.3900635,14.1641384 Z" id="Path" fill="#212121"></path>
        </g>
    </g>
</svg>